<svg xmlns="http://www.w3.org/2000/svg" xmlns:xlink="http://www.w3.org/1999/xlink" viewBox="0 0 123.23 91.62"><defs><style>.cls-1{fill:url(#linear-gradient);}</style><linearGradient id="linear-gradient" x1="14.04" y1="0.93" x2="112.03" y2="98.92" gradientUnits="userSpaceOnUse"><stop offset="0" stop-color="#2e6fb6"/><stop offset="0.43" stop-color="#5653a6"/><stop offset="1" stop-color="#873092"/></linearGradient></defs><g id="Layer_2" data-name="Layer 2"><g id="Layer_1-2" data-name="Layer 1"><path class="cls-1" d="M49.86,54l57.29,23.29V74.37L49.86,50.84Zm42.71-.33,22.87,9.24V57.19L92.57,47.57ZM31.41,22.74l10.52,4.41v-3L33.36,20.6a35.91,35.91,0,0,1,61,19.13l-6.15-2.56v3l5.71,2.35.84.34,10,4.11,13.2,5.4v-2.9L104.7,44A45.83,45.83,0,0,0,23.63,16.6L5.73,9.23v3L21.9,18.83ZM89.55,61.86V64.8l33.68,13.87v-3ZM64.61,68.8,79.83,75A35.91,35.91,0,0,1,23.54,51.89l11.38,4.64v-6L3.49,37.74v3l9.64,4c0,1,0,2,0,2.95L9,45.83v3l4.34,1.8a46.19,46.19,0,0,0,3.29,12.81,45.84,45.84,0,0,0,73.56,15.8l29.44,12V85.37L64.61,63ZM14.13,36.25l9.35,3.84,7.36,3.1V37.34L25.41,35a18.66,18.66,0,0,1,2.06-5L59.12,42.8V37L29.69,25l-9.36-3.84-4.61-1.91v2.93l3.2,1.35h0a63.32,63.32,0,0,0-3.47,7.38l-2.54-1L0,24.51v6l10.88,4.36Z"/></g></g></svg>