<svg id="Layer_1" data-name="Layer 1" xmlns="http://www.w3.org/2000/svg" viewBox="0 0 800 800"><defs><style>.cls-1{fill:#383838;}</style></defs><path class="cls-1" d="M278.52,205.47a20.13,20.13,0,0,0-20.13,20.13V566.32a20.13,20.13,0,1,0,40.26,0V225.6A20.13,20.13,0,0,0,278.52,205.47ZM194.6,291.81A20.14,20.14,0,0,0,174.47,312V481.21a20.13,20.13,0,0,0,40.26,0V312A20.14,20.14,0,0,0,194.6,291.81Zm418.18,0A20.14,20.14,0,0,0,592.64,312V481.21a20.14,20.14,0,0,0,40.27,0V312A20.14,20.14,0,0,0,612.78,291.81Zm-83.21-86.34a20.13,20.13,0,0,0-20.13,20.13V566.32a20.13,20.13,0,1,0,40.26,0V225.6A20.13,20.13,0,0,0,529.57,205.47Zm-91-72.24H369.19a26.29,26.29,0,0,0-26.29,26.29V383.31a26.29,26.29,0,0,0,26.29,26.29h41.48a13.91,13.91,0,0,1,13.91,13.91V595.76a20.71,20.71,0,0,1-41.42,0V486.44a20.13,20.13,0,0,0-22.11-20c-10.46,1-18.15,10.39-18.15,20.9V630.44a26.29,26.29,0,0,0,26.29,26.29h69.36a26.29,26.29,0,0,0,26.29-26.29V395.63a26.29,26.29,0,0,0-26.29-26.29H397.07a13.91,13.91,0,0,1-13.91-13.91V194.2a20.71,20.71,0,0,1,41.42,0V305.8a20.14,20.14,0,0,0,22.11,20c10.47-1,18.15-10.4,18.15-20.91V159.52A26.29,26.29,0,0,0,438.55,133.23Z"/></svg>